<?xml version="1.0" encoding="UTF-8"?>
<svg xmlns="http://www.w3.org/2000/svg" width="162.1" height="36" version="1.1" viewBox="0 0 162.1 36">
  <path d="M48.4,3c-.5-.2-.7.2-1,.5,0,0-.2.2-.3.3-.8.8-1.6,1.3-2.8,1.3-1.7,0-3.1.4-4.4,1.7-.3-1.6-1.2-2.6-2.5-3.2-.7-.3-1.4-.6-1.9-1.3-.3-.5-.4-1-.6-1.6-.1-.3-.2-.7-.6-.7-.4,0-.6.3-.7.6-.6,1.2-.9,2.5-.9,3.8,0,2.9,1.3,5.3,3.8,6.9.3.2.3.4.3.7-.2.6-.4,1.1-.5,1.7-.1.4-.3.4-.7.3-1.3-.6-2.5-1.4-3.5-2.4-1.8-1.7-3.3-3.6-5.3-5-.5-.3-.9-.7-1.4-1-2-1.9.3-3.6.8-3.8.5-.2.2-.9-1.6-.9s-3.4.6-5.5,1.4c-.3.1-.6.2-1,.3-1.9-.4-3.8-.4-5.9-.2-3.8.4-6.9,2.2-9.2,5.4C.2,11.4-.5,15.6.3,20.1c.8,4.7,3.2,8.5,6.8,11.5,3.8,3.1,8.1,4.7,13.1,4.4,3-.2,6.4-.6,10.2-3.8,1,.5,2,.7,3.6.8,1.3.1,2.5,0,3.5-.3,1.5-.3,1.4-1.7.9-1.9-4.4-2-3.4-1.2-4.3-1.9,2.2-2.6,5.6-5.4,6.9-14.3,0-.7,0-1.1,0-1.7s0-.5.5-.5c1.1-.1,2.2-.4,3.1-1,2.9-1.6,4-4.1,4.3-7.2,0-.5,0-1-.5-1.2h0q0,0,0,0ZM23.6,30.6c-4.3-3.4-6.3-4.5-7.2-4.4-.8,0-.7,1-.5,1.6.2.6.4,1,.8,1.5.2.3.4.9-.2,1.2-1.4.9-3.8-.3-3.9-.3-2.8-1.6-5.1-3.8-6.7-6.7-1.6-2.9-2.5-5.9-2.7-9.1,0-.8.2-1.1,1-1.2,1-.2,2.1-.2,3.1,0,4.3.6,8,2.6,11.1,5.7,1.8,1.8,3.1,3.8,4.5,5.9,1.5,2.2,3,4.2,5,5.9.7.6,1.3,1,1.8,1.4-1.6.2-4.4.2-6.2-1.2h0ZM25.6,17.5c0-.4.3-.6.6-.6s.1,0,.2,0c0,0,.2,0,.2.1.1.1.2.3.2.4,0,.3-.3.6-.6.6s-.6-.3-.6-.6h0ZM32,20.7c-.4.2-.8.3-1.2.3-.6,0-1.3-.2-1.6-.5-.6-.5-1-.7-1.1-1.6,0-.3,0-.9,0-1.2.1-.7,0-1.1-.5-1.5-.4-.3-.9-.4-1.4-.4s-.4,0-.5-.1c-.2-.1-.4-.4-.2-.7,0-.1.3-.4.4-.4.7-.4,1.6-.3,2.3,0,.7.3,1.3.8,2,1.6.8.9,1,1.2,1.4,1.9.4.5.7,1.1.9,1.7.1.4,0,.7-.5.9h0ZM97.8,29.2h-1.7v-2.6h1.7c1,0,2-.2,2.7-1,.7-.7.9-1.8.9-2.9s-.2-2.2-.9-2.9-1.7-1-2.7-1-2,.2-2.7,1c-.7.7-.9,1.8-.9,2.9v10.5h-2.9v-17h2.9v1.1h.5l.2-.2c.7-.7,1.8-.9,2.9-.9,1.7,0,3.4.4,4.6,1.6s1.5,3,1.5,4.8-.4,3.6-1.5,4.8c-1.1,1.2-2.9,1.6-4.6,1.6h0,0ZM53.6,16.8h1.7v2.6h-1.7c-1,0-2,.2-2.7,1-.7.7-.9,1.8-.9,2.9s.2,2.2.9,2.9,1.7,1,2.7,1,2-.3,2.7-1,.9-1.8.9-2.9v-10.5h2.9v17h-2.9v-1.1h-.5c0,0-.1.1-.2.2-.7.7-1.8.9-2.9.9-1.7,0-3.4-.4-4.6-1.6s-1.5-3-1.5-4.8.4-3.6,1.5-4.8c1.1-1.2,2.9-1.6,4.6-1.6h0ZM74.7,23.1v1h-7.7v-2h5.1c-.1-.8-.4-1.4-.9-1.9-.7-.7-1.8-1-2.9-1s-2.1.3-2.8,1c-.7.7-1,1.9-1,3s.2,2.2,1,3c.7.7,1.8,1,2.8,1s2.1-.3,2.9-1c0,0,.2-.2.3-.3h2.9c-.2.9-.7,1.7-1.2,2.3-1.2,1.2-2.9,1.7-4.7,1.7s-3.6-.4-4.7-1.7-1.6-3.1-1.6-5,.4-3.8,1.6-5,2.9-1.7,4.7-1.7,3.6.4,4.7,1.7,1.6,3.1,1.6,5h0ZM89.3,23.1v1h-7.7v-2h5.1c-.1-.8-.4-1.4-.9-1.9-.7-.7-1.8-1-2.8-1s-2.1.3-2.8,1c-.7.7-1,1.9-1,3s.2,2.2,1,3,1.8,1,2.8,1,2.1-.3,2.8-1c0,0,.2-.2.3-.3h2.9c-.2.9-.7,1.7-1.2,2.3-1.2,1.2-2.9,1.7-4.7,1.7s-3.6-.4-4.7-1.7-1.6-3.1-1.6-5,.4-3.8,1.6-5,2.9-1.7,4.7-1.7,3.6.4,4.7,1.7,1.6,3.1,1.6,5h0ZM112.1,29.7c1.8,0,3.6-.3,4.7-1,1.2-.7,1.6-1.8,1.6-2.9s-.4-2.2-1.6-2.9c-1.2-.7-2.9-1-4.7-1h0c-.8,0-1.5,0-2-.4-.5-.3-.7-.7-.7-1.1s.2-.9.7-1.1c.5-.3,1.3-.4,2-.4s1.5,0,2,.4c.5.3.7.7.7,1.1h2.9c0-1.1-.4-2.2-1.4-2.9-1-.7-2.7-1-4.3-1s-3.2.3-4.3,1c-1,.7-1.4,1.8-1.4,2.9s.4,2.2,1.4,2.9c1,.7,2.7,1,4.3,1s1.8,0,2.3.4c.6.3.8.7.8,1.1s-.2.9-.8,1.1-1.4.4-2.2.4-1.7,0-2.2-.4c-.6-.3-.8-.7-.8-1.1h-3.4c0,1.1.4,2.2,1.6,2.9,1.2.7,2.9,1,4.7,1h0ZM133,23.1v1h-7.7v-2h5.1c-.1-.8-.4-1.4-.9-1.9-.7-.7-1.8-1-2.8-1s-2.1.3-2.8,1c-.7.7-1,1.9-1,3s.2,2.2,1,3c.7.7,1.8,1,2.8,1s2.1-.3,2.8-1c0,0,.2-.2.3-.3h2.9c-.2.9-.7,1.7-1.2,2.3-1.2,1.2-2.9,1.7-4.7,1.7s-3.6-.4-4.7-1.7-1.6-3.1-1.6-5,.4-3.8,1.6-5,2.9-1.7,4.7-1.7,3.6.4,4.7,1.7c1.2,1.2,1.6,3.1,1.6,5h0ZM147.5,23.1v1h-7.7v-2h5.1c-.1-.8-.4-1.4-.9-1.9-.7-.7-1.8-1-2.8-1s-2.1.3-2.8,1c-.7.7-1,1.9-1,3s.2,2.2,1,3c.7.7,1.8,1,2.8,1s2.1-.3,2.8-1c0,0,.2-.2.3-.3h2.9c-.2.9-.7,1.7-1.3,2.3-1.2,1.2-2.9,1.7-4.7,1.7s-3.6-.4-4.7-1.7c-1.2-1.2-1.6-3.1-1.6-5s.4-3.8,1.6-5,2.9-1.7,4.7-1.7,3.6.4,4.7,1.7c1.2,1.2,1.6,3.1,1.6,5h0ZM149.5,12.1h2.9v17.5h-2.9V12.1ZM157.3,22.6l4.8,7h-3.6l-4.8-7,4.8-5.7h3.6s-4.8,5.7-4.8,5.7Z"/>
</svg>