<?xml version="1.0" encoding="UTF-8"?>
<svg xmlns="http://www.w3.org/2000/svg" width="128.5" height="36" version="1.1" viewBox="0 0 128.5 36">
    <path d="M126.4,19.4c.3-.3.8-.3,1,0h0l1,1.3c.2.3.2.6,0,.8-1.6,2.1-4.5,4.2-7.9,4.4-2.7.1-4.9-.9-6.2-2.8-.3-.4-.8-.4-1,0-1.5,1.9-3.2,3.5-5,3.6-3.3.2-4.2-2-3.3-6.8,0-.5-.3-.9-.8-.8-.6.2-1.4.3-2.1.2-.3,0-.6.1-.6.4-1.2,4-4,7.6-7.8,7.8-2.4.1-5.9-1.2-5.5-6.9,0-.4-.4-.8-.8-.7-.8.2-1.5.3-2.4.3-.3,0-.6.1-.6.4-1.2,4-4,7.6-7.8,7.8-2.4.1-5.9-1.2-5.5-6.9,0-.4-.4-.8-.8-.7-.8.2-1.5.3-2.4.3-.3,0-.6.1-.6.4-1.2,4-4,7.6-7.8,7.8-1.7,0-4-.6-5-3-.2-.4-.8-.5-1.1-.1-1.5,2-3.3,3.6-5.1,3.7-1.9.1-3-.6-3.4-2-.2-.5-.8-.6-1.1-.2-1.3,1.5-2.8,2.6-4.3,2.8-2.3.1-3.7-1.6-3.7-3.7-.1-2.4.9-5.3,2.1-8.4.2-.4-.1-.9-.6-.9-.6,0-1.4,0-2.2-.3-.3,0-.6.1-.7.4-1.4,4.9-3.5,9.8-5.3,12.7-.2.3-.6.4-.9.2l-1.3-1c-.3-.2-.4-.6-.2-.9,2.6-4.2,4.9-10.6,5.7-15.4,0-.3.3-.5.6-.6h1.8c.4-.1.8.3.6.6h0c0,.4.2.8.5.8,1.6.2,4,.3,5.7.2.4,0,.8.4.6.9-1.3,3.5-3.1,8.4-3,10.3,0,.9.4,1.3,1.1,1.3,1.3,0,3.3-2.7,4.8-5.6v-.2c.5-2.2,1.3-4.8,2.1-7.4v-.2c.1-.3.4-.4.6-.4h2.2c.4-.1.8.3.6.8-.1.4-.2.7-.3,1.1-1.9,6.3-3.5,11.6-1.3,11.4,1.4,0,3.4-2.5,5.1-5.9v-.2c0-.4.2-.9.3-1.4,1-4,2.1-8,3.3-12,.4-1.2.7-2.4,1-3.7,0-.3.3-.4.6-.5h2.2c.4-.1.8.3.6.8-.9,2.8-1.8,5.8-2.7,8.7-.2.6.4,1.1,1,.8.9-.6,1.9-1,2.9-1.1,2.5-.1,4.2,1.9,4.4,5.1v.5c0,.3.3.6.6.6,1.2.1,2.4-.3,3.3-1.1,0,0,.2-.2.2-.3,1-3.6,1.9-7.2,3-10.7.4-1.2.7-2.4,1-3.7,0-.3.3-.4.6-.5h2.2c.4-.1.8.3.6.8-.9,2.8-1.8,5.8-2.7,8.7-.2.6.4,1.1,1,.8.9-.6,1.9-1,2.9-1.1,2.5-.1,4.2,1.9,4.4,5.1v.5c0,.3.3.6.6.6,1.2.1,2.4-.3,3.3-1.1,0,0,.2-.2.2-.3,1-3.6,1.9-7.2,3-10.7.4-1.2.7-2.4,1-3.7,0-.3.3-.4.6-.5h2.2c.4-.1.8.3.6.8-.9,2.8-1.8,5.8-2.7,8.7-.2.6.4,1.1,1,.8.9-.6,1.9-1,2.9-1.1,2.5-.1,4.2,1.9,4.4,5.1v.5c0,.3.3.6.6.6,1.2,0,2.3-.2,3.2-1,0,0,.2-.2.2-.3,1-4,2.6-9.4,4.1-14.5,0-.3.3-.4.6-.4h2.1c.4-.1.8.3.6.8-2.1,6.8-3.7,12.8-4.6,16.3-1.2,4.8-1.3,6.2.1,6.1,1.2,0,2.8-1.7,4.2-4.2,0,0,0-.2,0-.3.2-5,3.3-9.6,7.8-9.9,3.1-.2,4.8,2.1,4.9,4.4.2,4.4-4,7.1-8.3,6.9-.5,0-.8.5-.6,1,.6,1.2,1.8,1.9,3.9,1.8,2-.1,4.1-1.8,5.4-3.3h.3ZM57.3,20.7c-1,4,.2,5.5,1.8,5.5,2.6-.1,5-4.8,4.8-8.4,0-1.5-1-2.4-2.1-2.3-1.8.1-3.7,2.2-4.5,5.3h0ZM74.5,19.7c-1,4,.2,5.5,1.8,5.5h0c2.6-.1,5-4.8,4.8-8.4,0-1.5-1-2.4-2.1-2.3-1.8.1-3.7,2.2-4.5,5.3h0ZM91.6,18.7c-1,4,.2,5.5,1.8,5.5h0c2.6-.1,5-4.8,4.8-8.4,0-1.5-1-2.4-2.1-2.3-1.8.1-3.7,2.2-4.5,5.3h0ZM122.7,13.5c0-1-.6-1.8-1.7-1.7h0c-2.1.1-3.7,2.3-4.2,5,0,.4.2.8.6.8,2.6,0,5.3-1.8,5.2-4h0ZM27.1,15.4c-.3-8.1-5.5-13.4-13.2-13.1-3.3.1-7.1,1.4-10,3.7-.3.2-.3.6-.1.9l1.2,2c.2.3.6.4,1,.1,2.2-1.8,5.1-3,8-3.1,5.3-.2,9.2,3.1,9.4,9.8.3,7.6-4.9,16.4-13.1,16.9h-.9c-.3,0-.7-.4-.6-.8,1.6-6.4,3.5-13.4,5.3-19.7.1-.4-.2-.9-.6-.8h-2.4c-.3.1-.5.3-.6.6-1.8,6.3-3.7,13.2-5.3,19.6,0,.4-.4.6-.8.4-.8-.3-1.7-.6-2.3-1s-.7,0-.9.3L0,33.2c-.1.3,0,.7.3.9,2.4,1.3,5.9,2.1,9.5,1.9,11.8-.6,17.6-11.6,17.3-20.6h0ZM50.3,5.5c-1.4,0-2.7,1.7-2.6,3.4,0,1.1.8,1.9,1.9,1.8,1.4,0,2.8-1.8,2.7-3.4,0-1.1-.9-1.9-1.9-1.8h0Z"/>
</svg>