<?xml version="1.0" encoding="UTF-8"?>
<svg xmlns="http://www.w3.org/2000/svg" width="149.2" height="36" version="1.1" viewBox="0 0 149.2 36">
  <path d="M39.5,7c5.2,0,10.2,3.2,10.2,10.3s0,1.4,0,2c0,.1-.1.3-.3.3h-14.5c.4,2.5,2.1,4.2,4.8,4.2s2.9-1,3.5-2.2c0-.1.2-.2.4-.2l5.4,1.2c.2,0,.2.2.2.4-1.3,3-4.1,6-9.5,6s-10.8-4.8-10.8-11,3.9-11,10.7-11h0,0ZM43.7,15.7c-.3-2.4-1.8-3.7-4-3.7s-4.2,1.6-4.6,3.7h8.7,0ZM51.6,28V8c0-.1.1-.3.3-.3h5.6c.1,0,.3.1.3.3v2.4c1.3-2.2,3.3-3.3,5.9-3.3,3.8,0,7,2.7,7,8.7v12.3c0,.1-.1.3-.3.3h-5.6c-.1,0-.3-.1-.3-.3v-11.3c0-2.7-1.3-4.2-3.3-4.2s-3.5,1.4-3.5,4.8v10.8c0,.1-.1.3-.3.3h-5.6c-.1,0-.3-.1-.3-.3h0ZM71,7.7h6c.1,0,.2,0,.2.2l4.5,15.6,4.5-15.6c0-.1.1-.2.2-.2h6c.2,0,.3.2.2.4l-6.9,20c0,.1-.2.3-.3.3h-7.5c-.2,0-.3-.1-.3-.3l-6.9-20c0-.2,0-.4.2-.4h0ZM105.8,28v-3.2c-1,2.1-3.1,4.1-6.5,4.1s-6.8-2.6-6.8-6.2,2.4-6.7,7.7-6.7h3.1c1.7,0,2.2-1.3,2-2.1-.2-1.4-1.5-2.2-3.2-2.2s-3.5,1.3-3.7,3c0,.1-.2.3-.3.3l-5.2-.9c-.1,0-.2-.2-.2-.3.9-4.8,5.2-6.7,9.6-6.7s9.3,1.1,9.3,9.7v11.3c0,.1-.1.3-.3.3h-5.3c-.1,0-.3-.1-.3-.3h0ZM101.1,24.3c2.5,0,4.2-1.9,4.4-4.3h-3.7c-2.3,0-3.1,1-3,2.3,0,1.4,1.1,2,2.4,2h0,0ZM112.5,12.5v-4.6c0-.1.1-.3.3-.3h2.2c1,0,1.9-.9,1.9-1.9v-3.6c0-.1.1-.3.3-.3h5c.1,0,.3.1.3.3v5.5h4c.1,0,.3.1.3.3v4.6c0,.1-.1.3-.3.3h-4v7.5c0,2.4,2,3.4,4,2.6.1,0,.3,0,.3.2v4.9c0,.2-.1.3-.3.4-.5.1-1.3.3-2.1.3-4.8,0-8.1-1.7-8.1-8.9v-6.8h-3.4c-.1,0-.3-.1-.3-.3h0s0,0,0,0ZM149.2,18c0,6-4.1,11-10.8,11s-10.8-4.9-10.8-11,4.1-11,10.8-11,10.8,4.9,10.8,11ZM143,18c0-3-1.6-5.5-4.6-5.5s-4.6,2.5-4.6,5.5,1.6,5.5,4.6,5.5,4.6-2.5,4.6-5.5ZM13.8,36c.9,0,1.6-.7,1.6-1.6s-.7-1.6-1.6-1.6-1.6.7-1.6,1.6.7,1.6,1.6,1.6ZM22.6,23.4l-8.7,1c-.2,0-.2-.2-.1-.3l8.5-6.9c.6-.5.9-1.2.7-2-.1-1.2-1.1-2-2.3-1.8l-9.2,1.4c-.2,0-.2-.2-.1-.3l9.1-7.3c1.8-1.5,2-4.3.3-6-1.5-1.6-3.9-1.5-5.4,0L.7,16.9c-.6.6-.8,1.5-.7,2.4.2,1.4,1.6,2.4,3,2.1l7.9-1.7c.2,0,.3.2.1.3l-8.8,5.9c-1.1.7-1.6,2-1.3,3.3.3,1.7,2,2.7,3.6,2.3l13.2-3.4c.1,0,.3.1.2.3l-2.1,2.7c-.6.7.3,1.7,1.1,1.2l6.8-5.8c1.2-1,.4-3.1-1.2-2.9h0s0,0,0,0Z"/>
</svg>