<?xml version="1.0" encoding="UTF-8"?>
<svg xmlns="http://www.w3.org/2000/svg" width="85.7" height="36" version="1.1" viewBox="0 0 85.7 36">
  <path d="M18.9,20.6h5.1v4.3c0,.5-.4.9-.9.9h-3.4c-.5,0-.9-.4-.9-.9v-4.3ZM29.1,10.2h-5.1v-5.1c0-1.4-.6-2.7-1.5-3.6s-2.2-1.5-3.6-1.5v15.4h15.4c0-2.9-2.3-5.1-5.1-5.1h0ZM14.6,10.3H5.1c-2.8,0-5.1,2.3-5.1,5.1v5.3c0,2.8,2.3,5.1,5.1,5.1h5.2v10.3h.3c2.7,0,4.9-2.2,4.9-4.9v-9.9c0-.4-.3-.7-.7-.7H6.7c-.9,0-1.5-.7-1.5-1.5v-1.8c0-.9.8-1.8,1.8-1.8h7.8c.3,0,.6-.3.6-.6v-3.7c0-.4-.3-.7-.7-.7h0ZM29.1,24.9c0,.5.4.9.9.9h3.4c.5,0,.9-.4.9-.9v-4.3h-5.1v4.3ZM42.9,25.7h5c2.9,0,5.2-2.3,5.2-5.1h-15.4c0,2.9,2.4,5.1,5.2,5.1ZM47.9,10.3h-5c-2.9,0-5.2,2.3-5.2,5.1h15.4c0-2.9-2.4-5.1-5.2-5.1ZM80.6,10.3v-4.3c0-.5-.4-.9-.9-.9h-3.4c-.5,0-.9.4-.9.9v9.4h5.1c1.4,0,2.7-.6,3.6-1.5.9-.9,1.5-2.2,1.5-3.6h-5.1ZM58.1,22.1c-.9.9-1.5,2.2-1.5,3.6h10.2c1.4,0,2.7-.6,3.6-1.5s1.5-2.2,1.5-3.6h-10.2c-1.4,0-2.7.6-3.6,1.5ZM56.6,15.3v.2h10.2c2.9,0,5.1-2.3,5.1-5.1h-10.5c-2.7,0-5,2.2-5,5h0ZM80.7,20.6h-5.1c0,2.9,2.3,5.1,5.1,5.1h0v-5.1Z"/>
</svg>