<?xml version="1.0" encoding="UTF-8"?>
<svg xmlns="http://www.w3.org/2000/svg" width="120.6" height="36" version="1.1" viewBox="0 0 120.6 36">
  <path d="M36.1,31.7c-2.8,0-5-2.2-5-5h-4.5c0,5.2,4.2,9.3,9.5,9.3s9.5-4,9.5-9.3h-4.5c0,2.8-2.2,5-5,5M45.3,11.4v-3.5h-6.2c-1-.4-2.1-.5-3.1-.5-5.3,0-9.5,4-9.5,9.3s4.2,9.3,9.5,9.3,9.5-4,9.5-9.3-.5-3.5-1.4-4.8l1.3-.4ZM36.1,21.7c-2.8,0-5-2.2-5-5.1s2.2-5,5-5,5.1,2.2,5.1,5.1-2.2,5.1-5.1,5.1M0,25.4h4.4V.5H0v25ZM15.6,7.4c-5.3,0-9.5,4-9.5,9.3s4.2,9.3,9.5,9.3,9.5-4,9.5-9.3-4.2-9.3-9.5-9.3M15.6,21.7c-2.8,0-5-2.2-5-5.1s2.2-5,5-5,5.1,2.2,5.1,5.1-2.2,5.1-5.1,5.1M47.3,25.4h4.4V7.9h-4.4v17.5ZM92.4,11.6c1.9,0,3.4,1,4.5,2.3l3-3c-1.7-2.2-4.4-3.5-7.5-3.5-5.3,0-9.5,4-9.5,9.3s4.2,9.3,9.5,9.3,5.8-1.4,7.5-3.5l-3-3c-1.1,1.3-2.7,2.3-4.5,2.3-2.8,0-4.9-2.2-4.9-5.1s2.2-5.1,5-5.1M119.7,5.8c0-.4-.2-.5-.6-.5h-.5v1.6h.2v-.6h.4l.4.6h.2l-.4-.7c.2,0,.4-.2.4-.4M118.7,6.2v-.5h.4c.3,0,.4.1.4.3s-.1.3-.4.3h-.4ZM111.3,7.4c-2.2,0-4,.8-5.3,2.2V.5h-4.4v25h4.4v-9.6c0-2.5,1.6-4.3,4.3-4.3s3.9,1.6,3.9,4.3v9.5h4.4v-10.3c0-4.9-3-7.8-7.2-7.8M72.5,7.4c-5.2,0-9.3,4-9.3,9.4s3.7,9.2,9.3,9.2,6-1.1,8-3.4l-3-2.9c-1.4,1.4-3,2.4-4.9,2.4s-4.2-1.4-4.8-3.7h13.6v-1.1c0-6-3.7-10-9-10M67.8,14.8c.6-2.4,2.4-3.6,4.6-3.6s4,1.3,4.5,3.6h-9.2,0ZM119.1,4.6c-.8,0-1.6.7-1.6,1.5s.7,1.6,1.6,1.6,1.5-.7,1.5-1.6-.7-1.5-1.5-1.5M119.1,7.5c-.8,0-1.3-.6-1.3-1.3s.6-1.3,1.3-1.3,1.3.6,1.3,1.3-.6,1.3-1.3,1.3M49.4,0c-1.6,0-2.9,1.3-2.9,2.9s1.3,2.9,2.9,2.9,3-1.3,3-2.9-1.3-2.9-3-2.9M60.3,2.5h-4.4v5.4h-2.4v3.9h2.4v13.7h4.4v-13.7h2.4v-3.9h-2.4V2.5Z"/>
</svg>