<?xml version="1.0" encoding="UTF-8"?>
<svg xmlns="http://www.w3.org/2000/svg" width="133.6" height="32" version="1.1" viewBox="0 0 133.6 32">
  <path d="M7.4,12l2.5,12.5h.9l2.5-12.5h7.4v19.7h-4.1V15.4h-.9l-3.5,16.2h-3.8l-3.5-16.2h-.9v16.2H0V12s7.4,0,7.4,0ZM30.7,16.2c4.7,0,7.4,2.8,7.4,7.9s-2.7,7.9-7.4,7.9-7.4-2.8-7.4-7.9,2.7-7.9,7.4-7.9ZM30.7,28.8c2.1,0,3.1-1.1,3.1-3.7v-2.2c0-2.5-1-3.7-3.1-3.7s-3.1,1.1-3.1,3.7v2.2c0,2.5,1,3.7,3.1,3.7ZM39.7,28.7l7.7-9.4h-7.6v-2.9h12.4v2.9l-7.7,9.4h7.8v2.9h-12.7v-2.9h0ZM54.5,16.4h5.7v15.2h-4.1v-12.3h-1.7v-2.9h0ZM56.1,12h4.1v2.9h-4.1v-2.9ZM62.9,12h5.7v19.7h-4.1V14.9h-1.7v-2.9h0ZM71.3,12h5.7v19.7h-4.1V14.9h-1.7v-2.9h0ZM85.6,16.2c2.3,0,3.7,1.1,4.1,3.1h.9v-2.7h4.8v2.9h-1.7v9.4h1.7v2.9h-2.3c-1.6,0-2.5-.9-2.5-2.5v-.3h-.9c-.5,1.9-1.9,3.1-4.1,3.1-3.5,0-6.1-3-6.1-7.9s2.5-7.9,6.1-7.9h0ZM86.8,28.8c2.1,0,3-1.1,3-3.7v-2.2c0-2.5-.9-3.7-3-3.7s-3,1.1-3,3.7v2.2c0,2.5.9,3.7,3,3.7ZM110.6,31.7h-4.1V0h4.1v31.7ZM113.9,16.2h16v-.9l-10.4-3.8v-3.2l10.4-3.8v-.9h-12.4V0h16v6.5l-8.5,2.9v.9l8.5,2.9v6.5h-19.7v-3.5h0ZM113.9,3.5h3.7v3.7h-3.7v-3.7Z"/>
</svg>