<?xml version="1.0" encoding="UTF-8"?>
<svg xmlns="http://www.w3.org/2000/svg" width="222.6" height="36" version="1.1" viewBox="0 0 222.6 36">
  <path d="M90.8,10.8c0,.4-.1.7-.1,1.2-1-.7-2.2-1.5-3.6-1.9-2.8-1-6-1-8.7.3s-2.8,1.6-4,3c-1.2,1.2-2.1,2.7-2.7,4.2-.6,1.6-.9,3.3-.9,5.1s.3,3.4.9,5.1c.6,1.6,1.5,3.1,2.7,4.3,1,1.2,2.5,2.2,4,3,1.5.6,3.1,1,4.8,1,2.8,0,5.4-.9,7.5-2.7l.3,2.4h4.6V9.7h-4.6c0,.4-.1.7-.1,1ZM89.9,25.7c-.3.9-.9,1.8-1.5,2.5s-1.5,1.3-2.4,1.6c-.9.4-1.8.6-2.8.6s-1.9-.1-2.8-.6c-.9-.4-1.6-1-2.2-1.6-.6-.7-1.2-1.6-1.5-2.5-.4-1-.6-2.1-.6-3.1s.1-2.1.6-3.1c.3-.9.9-1.8,1.5-2.5s1.5-1.3,2.2-1.8c.9-.4,1.8-.6,2.8-.6s1.9.1,2.8.6c.9.4,1.6,1,2.4,1.8.6.7,1.2,1.6,1.5,2.5.4,1,.6,2.1.6,3.1,0,1-.1,2.2-.6,3.1ZM18.7,28.4c-.1,2.1-1,3.9-3,5.4-1.8,1.3-4,2.1-6.9,2.1-1.6-.1-3.3-.6-4.6-1.3-1.5-.7-2.8-2.1-4.2-3.9l4.3-2.8c.7,1,1.5,1.8,2.2,2.1.7.3,1.5.6,2.4.6s2.2-.3,3.1-.7c.9-.3,1.3-.9,1.3-1.5s-.1-.7-.4-1c-.3-.4-.7-.7-1.2-1s-1-.6-1.6-.9-1.2-.6-1.9-.9c-.9-.4-1.8-.9-2.7-1.3-.9-.4-1.6-1-2.5-1.6-.7-.6-1.3-1.3-1.8-2.1-.4-.7-.7-1.8-.6-2.8,0-1.2.3-2.1.7-3,.4-.9,1.2-1.5,1.9-2.1,1.2-.6,2.1-1,3.1-1.3.9-.3,1.9-.4,3-.4,2.1,0,3.9.4,5.4,1.3s2.8,1.9,3.9,3.1l-4.3,3.1c-1.3-1.5-2.8-2.4-4.8-2.4s-2.1.1-2.7.4-.7.7-.7,1.2.1.7.6,1,.9.7,1.5,1,1,.6,1.6.7.9.4,1.2.4c.6.3,1.2.6,1.9.9.4.3,1,.6,1.6,1,2.8,1.8,4.2,4,4,6.7ZM112.2,9.4c.6-.1,1.2-.1,1.9-.1v5.2c-1,0-2.1.1-3.1.6-.9.4-1.8,1-2.5,1.6-.7.7-1.3,1.6-1.6,2.5-.4,1-.6,2.1-.6,3.1v13.1h-5.2V9.7h4.6v2.5c.7-.6,1.5-1,2.2-1.5s1.5-.7,2.2-.9c.6-.1,1.3-.3,2.1-.4ZM65.3,17.5c.6,1.6.9,3.3.9,5.1v13h-5.1v-13c0-1.9-.6-3.7-1.8-5.2-.6-.7-1.3-1.3-2.2-1.8s-1.9-.7-3-.9c-.9,0-1.9.3-2.7.7-1.6.9-3,2.4-3.6,4.3-.3.9-.6,1.9-.6,2.8v13h-5.2v-13c0-1.9-.6-3.7-1.8-5.2-.6-.7-1.3-1.3-2.2-1.8s-1.9-.7-2.8-.9c-1.9.1-3.7,1-4.9,2.5s-1,1.6-1.5,2.5c-.3.9-.4,1.9-.4,2.8v13.1h-5.1V9.7h4.6v2.2c2.1-1.8,4.5-2.5,7.3-2.5s3.7.4,5.4,1.3,3.1,2.1,4.2,3.7c1-1.5,2.5-2.8,4.2-3.7,1.6-.9,3.4-1.3,5.2-1.3s3.3.3,4.8,1,2.7,1.6,3.9,2.8c1,1.2,1.9,2.7,2.5,4.2ZM219.6,32.1l3,3.7h-6.7c-1.3-1.6-2.5-3.3-3.9-4.9-.9-1.2-1.9-2.4-2.8-3.6h-.1c0-.1-.1-.3-.1-.3l-.9,1v7.5h-5.2V0h5.2v19.7c1.3-1.8,2.7-3.4,4-4.9,1.3-1.6,2.5-3.3,3.9-4.9h6.7l-9.3,11.7-1.2,1.5,7.5,9.1h0ZM127.7,30.3h3.6v5.2h-3.6c-1.5,0-2.8-.3-4.2-.9-2.5-1-4.6-3.1-5.7-5.7-.6-1.3-.9-2.7-.9-4.2V0h5.2v9.7h5.5v5.2h-5.5v9.7c0,.7.1,1.5.4,2.1.3.6.7,1.2,1.2,1.8.9,1.2,2.4,1.8,3.9,1.8ZM194.8,13.3c-1-1.2-2.4-2.1-3.9-2.8h0s-.1,0-.1-.1c-1.5-.7-3.1-1-4.9-1s-3.3.3-4.9,1c0,0-.1,0-.1.1h0c-1.5.7-2.8,1.6-3.9,2.8-.1.1-.3.3-.4.4-3.6,3.7-6.4,3.6-10-.1-.1-.1-.1-.3-.3-.3-1.2-1.2-2.5-2.2-4.2-3-1.5-.7-3.1-1-4.9-1s-3.3.3-4.9,1c-3.1,1.5-5.5,4-6.9,7.2-1.9,4.9-.9,10.6,2.7,14.3,1,1.2,2.4,2.1,3.9,2.8h0s.1,0,.1.1c1.5.6,3.1,1,4.9,1s3.3-.3,4.9-1q.1,0,.3-.1h0c1.5-.6,2.8-1.6,3.9-2.8.1-.1.1-.3.3-.3h0c3.6-3.9,6.4-3.9,10,0,.1.1.1.3.3.3,1.2,1.2,2.5,2.2,4,3,1.5.6,3.1,1,4.9,1s3.3-.3,4.9-1c1.6-.6,3-1.6,4.2-3,1.2-1.2,2.1-2.7,2.7-4.3,1.2-3.3,1.2-6.9,0-10-.4-1.5-1.3-3-2.5-4.2ZM192.7,25.7c-.3.9-.9,1.8-1.6,2.5-.6.7-1.5,1.3-2.4,1.6-1.8.9-4,.9-5.8,0-.9-.4-1.6-1-2.4-1.6-.1-.1-.3-.3-.4-.4h0c-5.1-5.2-12.2-5.2-17.3,0h0c-.1.1-.3.3-.4.4-.6.7-1.5,1.3-2.4,1.6-.9.4-1.8.6-2.8.6h-.6.6c-1,0-1.9-.1-2.8-.6s-1.6-1-2.4-1.6c-.7-.7-1.2-1.6-1.6-2.5-.4-1-.6-2.1-.6-3.1,0-2.1.7-4.2,2.2-5.7s1.5-1.3,2.4-1.8c1.8-.9,4-.9,5.8,0,.9.4,1.6,1,2.4,1.8.1.1.1.3.3.4h0c5.1,5.2,12.4,5.2,17.5,0h0c.1-.1.1-.3.3-.4.6-.7,1.5-1.3,2.4-1.8s1.9-.6,2.8-.6h.7-.6c1,0,1.9.1,2.8.6.9.4,1.6,1,2.4,1.8,1.3,1.5,2.2,3.6,2.2,5.7s-.3,2.2-.6,3.1ZM135.2,0h5.2v35.6h-5.2V0Z"/>
</svg>