<?xml version="1.0" encoding="UTF-8"?>
<svg xmlns="http://www.w3.org/2000/svg" width="95.9" height="36" version="1.1" viewBox="0 0 95.9 36">
  <path d="M14.9,8.6l-7.5-4.3L0,8.6v-4.3L7.4,0l7.5,4.3v4.3h0ZM0,22c0,2.3.7,3.9,2.1,5.1s3.2,1.8,5.3,1.8,3.9-.6,5.4-1.8c1.4-1.2,2.1-2.9,2.1-5.2v-9.7h-3.9v9.4c0,2.4-1.8,3.7-3.5,3.7s-3.5-1.2-3.5-3.6v-9.5H0v9.8h0ZM51.5,25.6c-1.8,2-4.1,3.2-7.1,3.2s-4.6-.8-6.2-2.3-2.4-3.5-2.4-6.1h0c0-2.7.8-4.8,2.4-6.4,1.6-1.6,3.6-2.3,6.1-2.3s4.3.8,5.8,2.3c1.5,1.6,2.3,3.5,2.3,5.8s0,1.5,0,1.5h-12.6c.2,2.5,2.1,4.1,4.9,4.1s2.9-.5,4.1-1.6c0,0,2.9,1.7,2.9,1.7ZM41.2,16.1c-.8.7-1.3,1.4-1.4,2.4h8.7c0-.9-.5-1.7-1.2-2.3-.8-.7-1.7-1.1-2.9-1.1s-2.3.3-3.2,1.1h0ZM87.9,31l8-18.8h-4l-4.9,11.8-4.7-11.8h-4l6.7,16.5-.8,1.8c-.8,1.8-1.6,2.1-2.4,2.1h-1.4v3.5h1.8c2.5,0,4.2-1.3,5.8-5h0ZM30.1,6h3.9v22.5h-3.9v-1.5c-.9.8-2.5,1.9-5.2,1.9s-4.2-.8-5.8-2.4c-1.5-1.6-2.3-3.6-2.3-6s.8-4.4,2.3-6c1.6-1.6,3.5-2.4,5.8-2.4s3.9.7,5.2,1.8v-7.8h0ZM30.3,20.3c0-1.4-.5-2.6-1.4-3.5s-2.1-1.4-3.5-1.4-2.5.5-3.5,1.4c-.9,1-1.3,2.1-1.3,3.5s.5,2.6,1.3,3.5c1,1,2.1,1.4,3.5,1.4s2.6-.5,3.5-1.4c1-1,1.4-2.1,1.4-3.5ZM72.3,11.9c3.4,0,5.7,2.3,5.7,6.5v10.1h-3.9v-9.5c0-2.2-1.1-3.6-2.9-3.6s-3.2,1.5-3.2,3.8v9.3h-3.8v-9.5c0-2.2-1.1-3.6-2.9-3.6s-3.2,1.6-3.2,3.8v9.3h-3.8V12.2h3.8v1.7c.7-.8,2.1-2,4.4-2s3.9,1.6,4.4,2.4c1.1-1.2,2.6-2.4,5.5-2.4h0Z"/>
</svg>