<?xml version="1.0" encoding="UTF-8"?>
<svg xmlns="http://www.w3.org/2000/svg" version="1.1" viewBox="0 0 200 48.7">
  <path d="M79.1,39h6.3l-11.4-32.5h-7.3l-11.4,32.5h6.3l2.7-8h12.2l2.7,8h0ZM65.8,26.2l4.4-13.1h.3l4.4,13.1h-9.1ZM91.6,24.7v14.3h-5.7V14.6h5.5v4.1h.3c.6-1.4,1.5-2.5,2.7-3.2,1.2-.8,2.8-1.2,4.6-1.2s3.2.4,4.4,1.1c1.2.7,2.2,1.8,2.9,3.1.7,1.4,1,3,1,5v15.5h-5.7v-14.7c0-1.6-.4-2.9-1.3-3.8-.8-.9-2-1.4-3.5-1.4s-1.9.2-2.7.7c-.8.4-1.4,1.1-1.8,1.9-.4.8-.6,1.8-.6,3h0ZM120,48.7c-2.1,0-3.8-.3-5.3-.8-1.5-.6-2.7-1.3-3.6-2.2-.9-.9-1.5-2-1.9-3.1l5.2-1.2c.2.5.6,1,1,1.4.5.5,1,.9,1.8,1.2s1.7.5,2.9.5,3-.4,4.1-1.2c1.1-.8,1.6-2.1,1.6-3.9v-4.6h-.3c-.3.6-.7,1.2-1.3,1.8s-1.3,1.2-2.2,1.6-2.1.6-3.5.6-3.6-.5-5.1-1.3c-1.5-.9-2.7-2.2-3.6-4s-1.4-4-1.4-6.6.5-5,1.4-6.8,2.1-3.2,3.6-4.2c1.5-1,3.2-1.4,5.1-1.4s2.6.2,3.5.7,1.7,1.1,2.2,1.7c.6.7,1,1.3,1.2,1.9h.3v-4h5.7v24.8c0,2.1-.5,3.8-1.5,5.2s-2.3,2.4-4.1,3.1c-1.7.7-3.7,1-5.9,1h0ZM120,34.2c1.2,0,2.3-.3,3.1-.9.8-.6,1.5-1.4,1.9-2.5.5-1.1.7-2.5.7-4s-.2-2.9-.7-4c-.4-1.2-1.1-2.1-1.9-2.7-.8-.6-1.9-1-3.1-1s-2.3.3-3.2,1c-.8.7-1.5,1.6-1.9,2.7-.4,1.2-.6,2.5-.6,3.9s.2,2.8.7,3.9c.4,1.1,1.1,2,1.9,2.6.8.6,1.9.9,3.2.9h0ZM148.8,28.8v-14.1h5.7v24.4h-5.6v-4.3h-.3c-.6,1.4-1.4,2.5-2.7,3.4-1.2.9-2.8,1.3-4.6,1.3s-3-.3-4.2-1.1-2.2-1.7-2.9-3.1c-.7-1.4-1-3-1-5v-15.5h5.8v14.7c0,1.5.4,2.8,1.3,3.7.8.9,2,1.4,3.3,1.4s1.7-.2,2.5-.6c.8-.4,1.4-1,2-1.9.5-.8.8-1.9.8-3.1h0ZM162.2,6.5v32.5h-5.7V6.5h5.7ZM171.3,39.5c-1.5,0-2.9-.3-4.2-.8-1.2-.6-2.2-1.4-2.9-2.5s-1.1-2.4-1.1-4,.3-2.5.8-3.4c.5-.9,1.2-1.6,2.1-2.2.9-.5,1.9-1,3-1.2,1.1-.3,2.3-.5,3.4-.6,1.4-.1,2.6-.3,3.5-.4.9-.1,1.5-.3,1.9-.6s.6-.7.6-1.2h0c0-1.3-.3-2.2-1.1-2.9-.7-.6-1.7-1-3.1-1s-2.5.3-3.4.9c-.8.6-1.4,1.3-1.7,2.2l-5.4-.8c.4-1.5,1.1-2.7,2.1-3.7s2.2-1.7,3.6-2.3c1.4-.5,3-.8,4.7-.8s2.3.1,3.5.4,2.2.7,3.2,1.4,1.7,1.5,2.3,2.6c.6,1.1.9,2.4.9,4.1v16.3h-5.5v-3.4h-.2c-.3.7-.8,1.3-1.5,1.9-.6.6-1.4,1.1-2.4,1.4-1,.3-2.1.5-3.4.5h.1ZM172.9,35.3c1.2,0,2.1-.2,3-.7.8-.5,1.5-1.1,2-1.8.5-.8.7-1.6.7-2.5v-2.9c-.2.1-.5.3-.9.4-.4.1-.9.2-1.4.3-.5,0-1,.2-1.6.3-.5,0-1,.1-1.4.2-.8.1-1.6.3-2.3.6-.7.3-1.2.6-1.6,1.1-.4.5-.6,1.1-.6,1.8,0,1.1.4,1.9,1.2,2.4.8.6,1.7.8,2.9.8h0ZM186,39V14.6h5.6v4.1h.3c.5-1.4,1.2-2.5,2.3-3.3,1.1-.8,2.3-1.2,3.7-1.2s.7,0,1.1,0c.4,0,.7,0,1,.1v5.3c-.3,0-.6-.2-1.2-.2-.5,0-1,0-1.5,0-1,0-2,.2-2.8.7s-1.5,1.1-2,1.9c-.5.8-.7,1.7-.7,2.8v14.3h-5.8ZM45.2,8l-1.6,25.6L28,0l17.2,8h0ZM34.4,41.1l-11.8,6.7-11.8-6.7,2.4-5.8h18.8l2.4,5.8h0ZM22.6,12.8l6.2,15h-12.4l6.2-15h0ZM1.6,33.6L0,8,17.2,0,1.6,33.6ZM79.1,39h6.3l-11.4-32.5h-7.3l-11.4,32.5h6.3l2.7-8h12.2l2.7,8h0ZM65.8,26.2l4.4-13.1h.3l4.4,13.1h-9.1ZM91.6,24.7v14.3h-5.7V14.6h5.5v4.1h.3c.6-1.4,1.5-2.5,2.7-3.2,1.2-.8,2.8-1.2,4.6-1.2s3.2.4,4.4,1.1c1.2.7,2.2,1.8,2.9,3.1.7,1.4,1,3,1,5v15.5h-5.7v-14.7c0-1.6-.4-2.9-1.3-3.8-.8-.9-2-1.4-3.5-1.4s-1.9.2-2.7.7c-.8.4-1.4,1.1-1.8,1.9-.4.8-.6,1.8-.6,3h0ZM120,48.7c-2.1,0-3.8-.3-5.3-.8-1.5-.6-2.7-1.3-3.6-2.2-.9-.9-1.5-2-1.9-3.1l5.2-1.2c.2.5.6,1,1,1.4.5.5,1,.9,1.8,1.2s1.7.5,2.9.5,3-.4,4.1-1.2c1.1-.8,1.6-2.1,1.6-3.9v-4.6h-.3c-.3.6-.7,1.2-1.3,1.8s-1.3,1.2-2.2,1.6-2.1.6-3.5.6-3.6-.5-5.1-1.3c-1.5-.9-2.7-2.2-3.6-4s-1.4-4-1.4-6.6.5-5,1.4-6.8,2.1-3.2,3.6-4.2c1.5-1,3.2-1.4,5.1-1.4s2.6.2,3.5.7,1.7,1.1,2.2,1.7c.6.7,1,1.3,1.2,1.9h.3v-4h5.7v24.8c0,2.1-.5,3.8-1.5,5.2s-2.3,2.4-4.1,3.1c-1.7.7-3.7,1-5.9,1h0ZM120,34.2c1.2,0,2.3-.3,3.1-.9.8-.6,1.5-1.4,1.9-2.5.5-1.1.7-2.5.7-4s-.2-2.9-.7-4c-.4-1.2-1.1-2.1-1.9-2.7-.8-.6-1.9-1-3.1-1s-2.3.3-3.2,1c-.8.7-1.5,1.6-1.9,2.7-.4,1.2-.6,2.5-.6,3.9s.2,2.8.7,3.9c.4,1.1,1.1,2,1.9,2.6.8.6,1.9.9,3.2.9h0ZM148.8,28.8v-14.1h5.7v24.4h-5.6v-4.3h-.3c-.6,1.4-1.4,2.5-2.7,3.4-1.2.9-2.8,1.3-4.6,1.3s-3-.3-4.2-1.1-2.2-1.7-2.9-3.1c-.7-1.4-1-3-1-5v-15.5h5.8v14.7c0,1.5.4,2.8,1.3,3.7.8.9,2,1.4,3.3,1.4s1.7-.2,2.5-.6c.8-.4,1.4-1,2-1.9.5-.8.8-1.9.8-3.1h0ZM162.2,6.5v32.5h-5.7V6.5h5.7ZM171.3,39.5c-1.5,0-2.9-.3-4.2-.8-1.2-.6-2.2-1.4-2.9-2.5s-1.1-2.4-1.1-4,.3-2.5.8-3.4c.5-.9,1.2-1.6,2.1-2.2.9-.5,1.9-1,3-1.2,1.1-.3,2.3-.5,3.4-.6,1.4-.1,2.6-.3,3.5-.4.9-.1,1.5-.3,1.9-.6s.6-.7.6-1.2h0c0-1.3-.3-2.2-1.1-2.9-.7-.6-1.7-1-3.1-1s-2.5.3-3.4.9c-.8.6-1.4,1.3-1.7,2.2l-5.4-.8c.4-1.5,1.1-2.7,2.1-3.7s2.2-1.7,3.6-2.3c1.4-.5,3-.8,4.7-.8s2.3.1,3.5.4,2.2.7,3.2,1.4,1.7,1.5,2.3,2.6c.6,1.1.9,2.4.9,4.1v16.3h-5.5v-3.4h-.2c-.3.7-.8,1.3-1.5,1.9-.6.6-1.4,1.1-2.4,1.4-1,.3-2.1.5-3.4.5h.1ZM172.9,35.3c1.2,0,2.1-.2,3-.7.8-.5,1.5-1.1,2-1.8.5-.8.7-1.6.7-2.5v-2.9c-.2.1-.5.3-.9.4-.4.1-.9.2-1.4.3-.5,0-1,.2-1.6.3-.5,0-1,.1-1.4.2-.8.1-1.6.3-2.3.6-.7.3-1.2.6-1.6,1.1-.4.5-.6,1.1-.6,1.8,0,1.1.4,1.9,1.2,2.4.8.6,1.7.8,2.9.8h0ZM186,39V14.6h5.6v4.1h.3c.5-1.4,1.2-2.5,2.3-3.3,1.1-.8,2.3-1.2,3.7-1.2s.7,0,1.1,0c.4,0,.7,0,1,.1v5.3c-.3,0-.6-.2-1.2-.2-.5,0-1,0-1.5,0-1,0-2,.2-2.8.7s-1.5,1.1-2,1.9c-.5.8-.7,1.7-.7,2.8v14.3h-5.8ZM45.2,8l-1.6,25.6L28,0l17.2,8h0ZM34.4,41.1l-11.8,6.7-11.8-6.7,2.4-5.8h18.8l2.4,5.8h0ZM22.6,12.8l6.2,15h-12.4l6.2-15h0ZM1.6,33.6L0,8,17.2,0,1.6,33.6Z"/>
</svg>