<?xml version="1.0" encoding="UTF-8"?>
<svg xmlns="http://www.w3.org/2000/svg" version="1.1" viewBox="0 0 200 53.3">
  <path d="M199.9,6.1c-.7,2.6-2.6,4.9-4.6,6.5-.7.6-1.5,1.1-2.4,1.5-1,.4-1.7.1-2.4-.8-.8-1.2-1.2-2.6-1.5-4.2-.1-1-.3-1.9-.4-2.9,0-1.4.4-2.9,1.2-4,.4-.7,1.1-1.2,1.8-1.7.7-.4,1.5-.6,2.4-.6,1.2-.1,2.6.1,3.7.8,1.8,1,2.5,3.2,2.1,5.3ZM193.4,18.8c-.4-1.4-1.7-1.7-2.9-1.8-1.9-.1-3.6.8-4.9,2.2-1.1,1.1-1.9,2.5-2.8,3.9-1.5,2.8-2.5,5.8-3.5,8.9-.6,1.9-1.1,3.7-1.9,6.2-.4,1.5-1,3.9-2.4,5-.4.3-.8.6-1.2.6-.6-.1-.8-.7-.8-1.2v-1.9c.1-1.9.6-3.9,1.2-5.7,1-3.1,1.9-6,2.9-9,.4-1.1.4-2.2,0-3.2-.1-.4-.4-.7-.7-1-1.2-1-3.6-.8-4.9.1-.4.3-1,.7-1.4,1-.1-.1-.1-.3-.3-.4-.3-.6-.7-1.1-1.2-1.5s-1.1-.7-1.8-1c-1.4-.4-2.8-.6-4-.4-1.7,0-3.2.4-4.7,1.1-2.2,1.1-4.2,2.9-5.6,5-1.5,2.1-2.9,4.4-4.2,6.7-1.2,2.4-2.2,4.9-2.6,7.5-.1,1-.3,1.9-.3,2.9s0,1.5.3,2.4c.1,1.5,1,2.9,2.1,4,1.1.8,2.4,1.4,3.6,1.5,1.7.3,3.3,0,4.7-.8,1.5-.8,2.9-1.9,4.2-3.2.6-.6,1-1.1,1.7-1.7,0,.3.1.6.1.8.1,1.7,1,3.2,1.9,4.4,1.8,1.9,4.3,2.2,6.8,1.9,1.4-.1,2.6-.7,3.9-1.4.6-.4,2.4-2.5,3.1-1.9.8.7,1,1.9,1.9,2.5.6.3,1.1.4,1.7.6.6,0,1.1,0,1.7-.3,1.5-.6,2.9-1.4,4.3-2.4.3-.1.6-.4.7-.7s.1-.7.1-1c-.1-2.6,0-5.4.6-8,.7-3.1,1.5-6,2.4-9,.8-3.1,2.2-5.8,2.6-9-.1-1.1-.1-1.9-.4-2.6ZM165.6,28.2c-.8,3.7-2.6,7.1-5,10-.8,1.1-1.8,2.1-3.1,2.9-.7.4-1.4.6-1.7-.3-.1-.3-.1-.4-.1-.7-.1-1.4.6-2.9,1.1-4.3.6-1.5,1.1-2.9,1.8-4.3,1-2.1,2.1-4,3.9-5.4.6-.4,1.2-.8,1.9-1,.4-.1,1,.3,1.2.7.1.8.1,1.7-.1,2.4ZM62.5,35.8c-1,3.1-2.9,5-6.1,5.7-1.8.4-3.7.3-5.6-.4-.8-.3-1.5-.8-1.9-1.5-.6-.7-.8-1.5-.8-2.4-.1-2.4.8-4.3,1.8-6.2.4-.8,1-1.7,1.2-2.5.1-.4.3-.8.1-1.4,0-.1-.1-.3-.1-.4-.1-.1-.1-.3-.3-.3-.1-.1-.3-.1-.4-.1s-.3,0-.4.1c-.8.4-1.5.8-2.2,1.4-2.6,2.5-4.9,5.4-6.9,8.3-2.2,3.2-4.2,6.4-6,9.9-.6,1.1-1,2.4-1.7,3.3-.4.8-1.1,1.4-1.9,1.9-.8.4-1.7.7-2.6.6-1.1,0-2.1-.1-3.1-.6-.7-.4-1.2-1.1-1.5-1.8-1.1.6-2.2,1.2-3.3,1.8-1.8,1-3.7,1.5-5.7,1.8-1.4.1-2.8.3-4,.3-2.5-.1-5-1-6.9-2.5-1.9-1.5-3.3-3.9-3.7-6.2-.4-1.8-.4-3.7-.1-5.6.4-2.9,1.4-5.7,2.8-8.2,1.1-2.1,2.5-4.2,4-6,1.5-1.9,3.5-3.6,5.6-5,1.5-1,3.3-1.7,5.1-2.1,2.4-.4,4.4.4,6.2,1.7,1.2.8,2.4,2.1,3.2,3.5.8,1.4,1,3.1.6,4.6-.4,1.7-1,3.3-1.8,4.9-.7,1.5-1.4,3.2-2.2,4.7-.1.3-.4.6-.7.8-.3.1-.7.1-1.1,0-1-.3-1.9-1-2.6-1.7-.7-.8-1.2-1.8-1.5-2.8-.1-1.5.1-3.1.7-4.3.7-1.7,1.4-3.3,2.1-5,0-.1.1-.3.1-.4v-.4c0-.1-.1-.3-.1-.3q-.1-.1-.3-.3c-.8.1-1.5.7-2.2,1.2-1,1-1.9,2.1-2.9,3.2-1.8,2.4-3.5,4.9-4.7,7.5-.8,1.5-1.2,3.2-1.5,5-.1,1.4-.1,2.6.1,4,.1.8.6,1.7,1.2,2.2.7.6,1.4.8,2.4,1,3.2.1,6.5-.7,9.3-2.4,1.1-.7,2.1-1.5,3.1-2.4.1-.1.3-.4.4-.6,1-2.6,1.9-5.3,2.9-7.8.7-1.9,1.7-3.7,2.5-5.7.8-1.8,1.8-3.6,2.9-5.3,1.2-1.8,2.9-3.2,5.1-3.5,1.8-.3,3.5.4,4.3,2.5.8,1.8.3,3.6-.3,5.3-.1.4-.3.8-.6,1.5,1.1-1.1,1.9-2.2,2.9-3.2,1.7-1.7,3.6-3.1,5.7-4,1.5-.7,3.2-1.1,4.9-1.1,2.1.1,4,.6,5.4,2.2.7.7,1.1,1.7,1.2,2.6.3,1.8-.3,3.3-1,5-.6,1.2-1,2.4-1.4,3.6-.3,1,.3,1.7,1.2,1.9.3,0,.4.1.7.1.7-.6.7-.4.6-.1ZM148.8,21.4c-.8-1.9-5.1-2.1-6.9-1.5-.7.3-1.4.6-1.9,1-2.9,1.8-4,4.2-5.4,7.2-1.4,3.1-2.6,6.1-4.2,9-1,1.9-2.1,3.7-3.3,5.6-.7,1.1-1.8,1.9-3.2,2.2-.8.1-1.1-.1-1.4-.8-.3-.6-.4-1.2-.4-1.9-.1-1.9.1-3.9.7-5.7.8-2.9,1.8-5.8,2.6-8.7.4-1.2.7-2.6.7-4s-.1-1-.3-1.4c-.1-.4-.6-.8-.8-1.1-.8-.6-1.7-1-2.6-1-1-.1-1.9.1-2.8.6-1.8.8-3.1,2.4-3.9,4.2-1.2,2.5-2.4,5-3.6,7.5-.8,1.7-1.7,3.5-2.6,5.1-1.1,2.4-2.4,4.6-3.9,6.7-.3.3-.7.7-1,.7s-.6-.6-.8-.8h-.1c-.4-1.7-.6-3.2-.3-4.9.3-1.8.7-3.5,1-5.3.8-3.5,1.7-6.9,2.5-10.3.1-.7.1-1.4,0-2.1-.3-.7-.7-1.2-1.2-1.7s-1.2-.7-1.8-.8c-.7-.1-1.4-.1-2.1,0-1.8.3-3.2,1.4-4.3,2.9-1.2,1.8-2.2,3.9-2.8,6.1-.4,1.8-.7,3.6-1,5.6-.1.8-.1,1.7-.3,2.6,0,.3-.1.4-.3.7-.7.8-1.5,1.5-2.2,2.2-1.4,1.4-3.1,2.5-4.9,3.5-1.1.7-2.5,1-3.7,1.1-1.4.1-2.6-.1-3.9-.6-.8-.3-1.5-.8-2.1-1.5s-1-1.4-1.1-2.2h3.2c2.5,0,4.9-.7,6.9-1.8,2.1-1,3.6-2.6,4.7-4.7,1.1-2.2,1.4-4.9.8-7.4-.3-1.1-.8-2.2-1.7-3.2-.8-1-1.8-1.7-2.9-2.1-1.2-.6-2.6-1-3.9-1-1.2-.1-2.5-.1-3.7,0-2.6.6-5.1,1.7-7.1,3.6-2.1,1.9-3.9,4.2-5.1,6.7-1.5,2.8-2.4,5.8-2.6,9-.1,1.8,0,3.6.4,5.3.6,2.4,1.9,4.4,4,5.8s4.6,2.1,7.1,2.2c1.8,0,3.5,0,5.3-.3,1.7-.1,3.5-.7,5-1.4,2.6-1.1,4.9-2.8,6.8-4.9.6-.7,1.2-1.2,1.7-1.9.6,1.2,1,2.5,1.5,3.6.7,1.5,1.9,2.8,3.5,3.5s3.1,1.1,4.7,1.4c.4.1.8.1,1.2,0s.8-.3,1.1-.6c1.1-1.1,2.2-2.1,3.2-3.1.6-.7,1.1-1.2,1.7-1.9.7-1,1.5-1.9,2.2-2.9.1.6.1,1,.3,1.4.6,2.1,1.4,4,3.3,5.3,1.2.8,2.6,1.4,4.2,1.7,2.5.7,5.1.6,7.4-.6s4.7-3.1,6.5-5.3c1.4-1.7,2.8-3.3,3.9-5.1,1.8-2.8,3.6-5.7,5.3-8.6.8-1.5,1.7-3.1,2.5-4.4.7-1.2,2.5-3.3,2.6-4.7-.1-1-.1-1.4-.3-1.7ZM76,32.2c.6-1.5,1.4-2.9,2.5-4.2.7-.8,1.5-1.4,2.6-1.7.3,0,.7,0,1,.1s.6.3.8.6c.3.3.4.6.4,1,.1.3,0,.7,0,1-.8,3.3-3.1,5.3-6.2,6.1-.7.1-1.4.1-2.1.1.4-1.2.7-2.2,1-3.1Z"/>
</svg>