<?xml version="1.0" encoding="UTF-8"?>
<svg xmlns="http://www.w3.org/2000/svg" version="1.1" viewBox="0 0 200 84">
  <path d="M44,48h12v10c0,1.1-.9,2-2,2h-8c-1.1,0-2-.9-2-2v-10ZM67.9,23.9h-11.9v-11.9c0-3.3-1.3-6.3-3.5-8.5s-5.2-3.5-8.5-3.5v35.9h36c0-6.7-5.4-12-12-12ZM34.1,24H11.8c-6.5,0-11.8,5.3-11.8,11.8v12.3c0,6.5,5.3,11.8,11.8,11.8h12.1v24.1h.7c6.3,0,11.4-5.1,11.4-11.4v-23c0-.9-.8-1.7-1.7-1.7H15.6c-2,0-3.6-1.6-3.6-3.6v-4.3c0-2.2,1.8-4.1,4.1-4.1h18.3c.8,0,1.5-.7,1.5-1.5v-8.7c0-.9-.8-1.7-1.7-1.7ZM68,58.1c0,1.1.9,2,2,2h8c1.1,0,2-.9,2-2v-10.1h-12v10.1ZM100.1,60h11.6c6.7,0,12.1-5.4,12.2-12h-36c0,6.7,5.5,12,12.2,12ZM111.7,24.1h-11.6c-6.7,0-12.1,5.4-12.2,12h36c0-6.7-5.5-12-12.2-12ZM188.1,24v-10c0-1.1-.9-2-2-2h-8c-1.1,0-2,.9-2,2v22h12c3.3,0,6.3-1.4,8.4-3.5,2.2-2.2,3.5-5.2,3.5-8.5h-11.9ZM135.6,51.5c-2.2,2.2-3.5,5.2-3.5,8.5h23.9c3.3,0,6.3-1.3,8.5-3.5s3.5-5.2,3.5-8.5h-23.9c-3.3,0-6.3,1.3-8.5,3.5ZM132.1,35.7v.4h23.9c6.7,0,12-5.4,12-12h-24.4c-6.4,0-11.6,5.2-11.6,11.6ZM188.2,48h-12c0,6.7,5.4,12,12,12h0v-12Z"/>
</svg>