<?xml version="1.0" encoding="UTF-8"?>
<svg xmlns="http://www.w3.org/2000/svg" version="1.1" viewBox="0 0 200 59.7">
  <path d="M59.8,52.6c-4.6,0-8.3-3.6-8.3-8.3h-7.4c0,8.7,6.9,15.4,15.7,15.4s15.7-6.7,15.7-15.4h-7.4c0,4.7-3.7,8.3-8.3,8.3M75.2,18.9v-5.8h-10.2c-1.7-.6-3.4-.9-5.2-.9-8.8,0-15.7,6.7-15.7,15.4s6.9,15.4,15.7,15.4,15.7-6.7,15.7-15.4-.8-5.8-2.4-8l2.1-.7ZM59.8,36c-4.6,0-8.3-3.7-8.3-8.5s3.7-8.3,8.3-8.3,8.4,3.6,8.4,8.4c0,4.8-3.7,8.4-8.4,8.4M0,42.2h7.3V.8H0v41.4ZM25.8,12.2c-8.8,0-15.7,6.7-15.7,15.4s6.9,15.4,15.7,15.4,15.7-6.7,15.7-15.4-6.9-15.4-15.7-15.4M25.8,36c-4.7,0-8.3-3.7-8.3-8.5s3.7-8.3,8.3-8.3,8.4,3.6,8.4,8.4-3.7,8.4-8.4,8.4M78.4,42.2h7.3V13.1h-7.3v29.1ZM153.3,19.2c3.1,0,5.6,1.6,7.5,3.8l5-5c-2.8-3.6-7.3-5.8-12.4-5.8-8.8,0-15.7,6.7-15.7,15.4s6.9,15.4,15.7,15.4,9.6-2.3,12.4-5.8l-5-5c-1.9,2.2-4.4,3.8-7.5,3.8-4.7,0-8.2-3.6-8.2-8.4,0-4.8,3.6-8.5,8.3-8.5M198.5,9.7c0-.6-.4-.8-1-.8h-.9v2.6h.3v-1h.6l.6,1h.4l-.7-1.1c.4,0,.6-.3.6-.7M196.9,10.2v-.9h.6c.5,0,.6.2.6.5s-.2.5-.6.5c0,0-.6,0-.6,0ZM184.6,12.2c-3.6,0-6.6,1.4-8.8,3.7V.8h-7.3v41.4h7.3v-15.9c0-4.2,2.7-7.1,7.1-7.1s6.4,2.6,6.4,7.1v15.8h7.3v-17.1c0-8.1-5-12.9-12-12.9M120.3,12.2c-8.7,0-15.4,6.7-15.4,15.6s6.1,15.3,15.5,15.3,9.9-1.9,13.3-5.6l-4.9-4.8c-2.4,2.3-4.9,3.9-8.2,3.9s-7-2.3-8-6.1h22.6v-1.8c0-10-6.2-16.6-14.9-16.6M112.4,24.6c1-3.9,3.9-6,7.7-6s6.6,2.1,7.5,6h-15.3ZM197.5,7.7c-1.4,0-2.6,1.1-2.6,2.5s1.1,2.6,2.6,2.6,2.5-1.1,2.5-2.6c0-1.4-1.1-2.5-2.5-2.5M197.5,12.4c-1.3,0-2.2-1-2.2-2.2s1-2.2,2.2-2.2,2.2,1,2.2,2.2c0,1.3-1,2.2-2.2,2.2M82,0c-2.7,0-4.8,2.1-4.8,4.8s2.1,4.8,4.8,4.8,4.9-2.1,4.9-4.8c0-2.7-2.1-4.8-4.9-4.8M100,4.2h-7.3v9h-3.9v6.5h3.9v22.7h7.3v-22.7h4v-6.5h-4V4.2Z"/>
</svg>