<?xml version="1.0" encoding="UTF-8"?>
<svg xmlns="http://www.w3.org/2000/svg" version="1.1" viewBox="0 0 200 47.8">
  <path d="M11.1,17.9l3.8,18.7h1.4l3.8-18.7h11.1v29.5h-6.1v-24.3h-1.4l-5.3,24.3h-5.7l-5.3-24.3h-1.4v24.3H0v-29.5h11.1ZM45.9,24.2c7,0,11.1,4.2,11.1,11.8s-4,11.8-11.1,11.8-11.1-4.2-11.1-11.8c0-7.7,4.1-11.8,11.1-11.8ZM45.9,43.1c3.2,0,4.7-1.7,4.7-5.5v-3.3c0-3.8-1.5-5.5-4.7-5.5s-4.7,1.7-4.7,5.5v3.3c0,3.8,1.5,5.5,4.7,5.5ZM59.4,43l11.6-14h-11.4v-4.4h18.6v4.4l-11.6,14h11.7v4.4h-19v-4.4h0ZM81.6,24.6h8.5v22.8h-6.1v-18.4h-2.5v-4.4ZM84,17.9h6.1v4.4h-6.1v-4.4ZM94.1,17.9h8.5v29.5h-6.1v-25.1h-2.5v-4.4h0ZM106.7,17.9h8.5v29.5h-6.1v-25.1h-2.5v-4.4ZM128.2,24.2c3.4,0,5.6,1.7,6.2,4.6h1.4v-4.1h7.2v4.4h-2.5v14h2.5v4.4h-3.5c-2.4,0-3.8-1.3-3.8-3.8v-.4h-1.4c-.7,2.9-2.9,4.6-6.2,4.6-5.3,0-9.1-4.5-9.1-11.8s3.8-11.8,9.1-11.8h0ZM130,43.1c3.1,0,4.5-1.7,4.5-5.5v-3.3c0-3.8-1.4-5.5-4.5-5.5s-4.5,1.7-4.5,5.5v3.3c0,3.8,1.4,5.5,4.5,5.5ZM165.6,47.4h-6.1V0h6.1v47.4ZM170.5,24.2h24v-1.4l-15.6-5.7v-4.8l15.6-5.7v-1.4h-18.5V0h24v9.7l-12.7,4.4v1.4l12.7,4.4v9.7h-29.5v-5.3h0ZM170.5,5.3h5.5v5.5h-5.5v-5.5Z"/>
</svg>