<?xml version="1.0" encoding="UTF-8"?>
<svg xmlns="http://www.w3.org/2000/svg" version="1.1" viewBox="0 0 200 75.2">
  <path d="M31.1,17.9l-15.6-9L0,17.9v-9L15.5,0l15.6,9v9h0ZM0,45.9c0,4.7,1.5,8.1,4.4,10.6,2.9,2.5,6.6,3.7,11.1,3.7s8.2-1.2,11.2-3.7c2.9-2.5,4.4-6.1,4.4-10.8v-20.2h-8.1v19.7c0,5.1-3.8,7.7-7.4,7.7s-7.4-2.5-7.4-7.6v-19.8H0v20.5ZM107.5,53.5c-3.7,4.2-8.6,6.7-14.8,6.7s-9.7-1.6-13-4.8-5-7.4-5-12.7v-.3c0-5.4,1.7-9.7,5-13,3.4-3.3,7.6-4.9,12.8-4.9s8.9,1.6,12,4.9c3.2,3.3,4.7,7.3,4.7,12.2s-.2,3.2-.2,3.2h-26.3c.4,5.2,4.4,8.5,10.2,8.5s6-1.1,8.5-3.3c0,0,6.1,3.5,6.1,3.5ZM86,33.5c-1.7,1.4-2.7,3-3,5h18.1c0-1.9-1-3.5-2.5-4.9-1.7-1.5-3.6-2.2-6-2.2s-4.8.7-6.6,2.2h0ZM183.3,64.7l16.7-39.3h-8.3l-10.2,24.7-9.9-24.7h-8.3l13.9,34.4-1.6,3.7c-1.6,3.7-3.3,4.4-5.1,4.4h-3v7.2h3.7c5.3,0,8.7-2.7,12.1-10.5h0ZM62.7,12.5h8.1v46.9h-8.1v-3.1c-1.8,1.7-5.3,3.9-10.8,3.9s-8.8-1.7-12.1-5c-3.2-3.4-4.8-7.6-4.8-12.6s1.6-9.2,4.8-12.6c3.3-3.4,7.3-5.1,12.1-5.1s8.2,1.4,10.8,3.8V12.5h0ZM63.3,42.4c0-2.9-1-5.4-3-7.4-2-2-4.4-2.9-7.3-2.9s-5.3,1-7.2,2.9c-1.9,2-2.8,4.4-2.8,7.4s1,5.4,2.8,7.4c2,2,4.3,2.9,7.2,2.9s5.4-1,7.3-2.9c2-2,3-4.4,3-7.4ZM150.8,24.8c7,0,11.8,4.8,11.8,13.6v21h-8.1v-19.8c0-4.6-2.2-7.5-6-7.5s-6.7,3.2-6.7,7.9v19.5h-8v-19.8c0-4.6-2.2-7.5-6-7.5s-6.6,3.3-6.6,7.9v19.5h-8V25.5h8v3.5c1.4-1.7,4.3-4.2,9.1-4.2s8.2,3.3,9.1,5c2.2-2.5,5.4-5,11.5-5h0Z"/>
</svg>