<svg xmlns="http://www.w3.org/2000/svg" xmlns:xlink="http://www.w3.org/1999/xlink" class="btn-rotating__image" x="0px" y="0px" width="60px" height="60px" viewBox="0 0 60 60" xml:space="preserve"><path class="icon-star-scroll" d="M58.9,28.9c0,0-9.1,0.1-12.1,0c-1.3,0-5.3-0.5-5.3-0.5c-1.7-0.2-3.4-0.7-4.8-1.7c-1.4-1-2.7-2.3-3.6-3.7  c-0.8-1.3-1.3-2.7-1.5-4.2c0,0-0.4-3.3-0.5-4.4c-0.2-3.3,0-13.1,0-13.1c0-0.6-0.5-1.1-1.1-1.1s-1.1,0.5-1.1,1.1  c0,0,0.2,9.8,0,13.1c0,1.1-0.5,4.4-0.5,4.4c-0.2,1.5-0.6,3-1.5,4.2c-0.9,1.5-2.2,2.7-3.6,3.7s-3,1.5-4.7,1.7c0,0-3.7,0.4-5,0.5  c-3.1,0.2-12.5,0-12.5,0C0.5,28.9,0,29.4,0,30s0.5,1.1,1.1,1.1c0,0,9.4-0.2,12.5,0c1.2,0,5,0.5,5,0.5c1.7,0.2,3.3,0.7,4.7,1.7  c1.3,0.9,2.4,2,3.3,3.3c1,1.4,1.5,3.1,1.7,4.8c0,0,0.4,3.9,0.5,5.2c0.1,3,0,12.2,0,12.2c0,0.6,0.5,1.1,1.1,1.1s1.1-0.5,1.1-1.1  c0,0-0.1-9.2,0-12.2c0-1.3,0.5-5.2,0.5-5.2c0.2-1.7,0.7-3.4,1.7-4.8c0.9-1.3,2-2.4,3.3-3.3c1.4-1,3.1-1.5,4.8-1.7  c0,0,3.9-0.4,5.3-0.5c3-0.1,12.1,0,12.1,0c0.6,0,1.1-0.5,1.1-1.1s-0.5-1.1-1.1-1.1l0,0L58.9,28.9z" fill="#DDF160"></path></svg>